# Blender v2.90.0 OBJ File: 'GDW_1_Y3 - Flag.blend'
# www.blender.org
mtllib flag_default.mtl
o Flag_[Repositioned]_Cylinder.001
v 0.000000 0.000000 -0.760000
v -0.000000 0.250000 -0.213426
v 0.537401 0.000000 -0.537401
v 0.150915 0.250000 -0.150915
v 0.760000 0.000000 0.000000
v 0.213426 0.250000 -0.000000
v 0.537401 0.000000 0.537401
v 0.150915 0.250000 0.150915
v -0.000000 0.000000 0.760000
v -0.000000 0.250000 0.213426
v -0.537401 0.000000 0.537401
v -0.150915 0.250000 0.150915
v -0.760000 0.000000 -0.000000
v -0.213426 0.250000 -0.000000
v -0.537401 0.000000 -0.537401
v -0.150915 0.250000 -0.150915
v -0.000000 0.000000 0.000000
v 0.537401 0.250000 -0.537401
v 0.000000 0.250000 -0.760000
v 0.760000 0.250000 0.000000
v 0.537401 0.250000 0.537401
v -0.000000 0.250000 0.760000
v -0.537401 0.250000 0.537401
v -0.760000 0.250000 -0.000000
v -0.537401 0.250000 -0.537401
v 0.097436 3.284984 -0.000000
v -0.213426 2.743021 -0.000000
v -0.000000 2.743021 0.213426
v 0.000000 2.743021 -0.097436
v 0.087392 3.284984 -0.024248
v 0.087392 3.284984 0.024248
v -0.068898 2.743021 0.068898
v -0.068898 2.743021 -0.068898
v 1.366127 3.805360 -0.045135
v 1.366127 3.805360 0.054865
v 0.226127 3.147181 -0.045135
v 0.226127 3.147181 0.054865
v 0.226127 4.463539 -0.045135
v 0.150915 2.743021 -0.150915
v -0.000000 2.743021 -0.213426
v 0.213426 2.743021 -0.000000
v 0.150915 2.743021 0.150915
v -0.000000 2.743021 0.097436
v -0.150915 2.743021 0.150915
v -0.097436 2.743021 -0.000000
v -0.150915 2.743021 -0.150915
v -0.000000 4.416582 -0.000000
v 0.097436 4.288554 -0.000000
v -0.097436 4.416582 -0.000000
v -0.000000 4.416582 0.097436
v 0.000000 4.416582 -0.097436
v 0.087392 4.288554 -0.024248
v 0.087392 4.288554 0.024248
v -0.068898 4.416582 0.068898
v -0.068898 4.416582 -0.068898
v 0.068898 2.743021 0.068898
v 0.068898 4.416582 0.068898
v 0.097436 2.743021 -0.000000
v 0.068898 2.743021 -0.068898
v 0.097436 4.416582 -0.000000
v 0.068898 4.416582 -0.068898
v 0.226127 4.463539 0.054865
v 1.366127 3.805360 0.004865
v 0.226127 3.147181 0.004865
v 0.226127 4.463539 0.004865
v 0.139654 4.288554 0.024248
v 0.149697 4.288554 0.000000
v 0.149697 3.284984 0.000000
v 0.139654 3.284984 0.024248
v 0.139654 4.288554 -0.024248
v 0.139654 3.284984 -0.024248
vt 0.485739 0.450140
vt 0.518323 0.381654
vt 0.646715 0.378673
vt 0.672102 0.450141
vt 0.735395 0.285778
vt 0.803882 0.318363
vt 0.732414 0.157386
vt 0.803882 0.131999
vt 0.639519 0.068707
vt 0.672103 0.000220
vt 0.511127 0.071687
vt 0.485740 0.000219
vt 0.422447 0.164582
vt 0.353960 0.131997
vt 0.178005 0.653645
vt 0.133530 0.651261
vt 0.161939 0.076503
vt 0.195147 0.078300
vt 0.425428 0.292974
vt 0.353960 0.318361
vt 0.525886 0.622506
vt 0.454672 0.794433
vt 0.353960 0.693720
vt 0.353960 0.551292
vt 0.267403 0.656568
vt 0.222599 0.655414
vt 0.229803 0.077092
vt 0.266626 0.072007
vt 0.312641 0.657094
vt 0.306920 0.060185
vt 0.044707 0.644688
vt 0.000219 0.640564
vt 0.060114 0.036558
vt 0.096717 0.060570
vt 0.597100 0.450580
vt 0.454672 0.450580
vt 0.697813 0.551292
vt 0.697813 0.693720
vt 0.597100 0.794433
vt 0.559887 0.271587
vt 0.598276 0.271455
vt 0.625328 0.244215
vt 0.625195 0.205825
vt 0.597955 0.178773
vt 0.559565 0.178905
vt 0.532513 0.206145
vt 0.532647 0.244535
vt 0.763738 0.849654
vt 0.763738 0.867914
vt 0.353960 0.867914
vt 0.353960 0.849653
vt 0.253323 0.668670
vt 0.257401 0.662148
vt 0.299103 0.666659
vt 0.283719 0.676129
vt 0.763738 0.904434
vt 0.763739 0.922693
vt 0.353960 0.922697
vt 0.353960 0.904436
vt 0.763738 0.886174
vt 0.353960 0.886175
vt 0.089115 0.648268
vt 0.129516 0.071333
vt 0.353521 0.657094
vt 0.353521 0.033182
vt 0.299103 0.988781
vt 0.287173 0.969589
vt 0.922057 0.454782
vt 0.926279 0.450580
vt 0.939905 0.454300
vt 0.935833 0.462129
vt 0.012337 0.895914
vt 0.000219 0.903491
vt 0.987913 0.758243
vt 0.708252 0.682857
vt 0.983764 0.467981
vt 0.259403 0.031506
vt 0.288510 0.020283
vt 0.313284 0.000219
vt 0.093822 0.017171
vt 0.113632 0.032423
vt 0.139779 0.038952
vt 0.168268 0.040941
vt 0.198205 0.040345
vt 0.228868 0.037491
vt 0.321583 0.679575
vt 0.343625 0.670445
vt 0.343625 0.688705
vt 0.330714 0.701617
vt 0.312453 0.657533
vt 0.330714 0.657533
vt 0.299542 0.688705
vt 0.312453 0.701617
vt 0.299542 0.670445
vt 0.008005 0.848949
vt 0.016257 0.846429
vt 0.763739 0.813134
vt 0.763738 0.831394
vt 0.353960 0.831392
vt 0.353960 0.813131
vt 0.631032 0.934528
vt 0.385308 0.934530
vt 0.631037 0.801300
vt 0.631037 0.794873
vt 0.763739 0.794874
vt 0.631032 0.940955
vt 0.763739 0.940954
vt 0.385308 0.794871
vt 0.385308 0.801298
vt 0.353960 0.794871
vt 0.385308 0.940957
vt 0.353960 0.940957
vt 0.011410 0.830625
vt 0.241328 0.660961
vt 0.703300 0.637461
vt 0.708932 0.651501
vt 0.999781 0.455917
vt 0.702101 0.654342
vt 0.698251 0.690552
vt 0.999781 0.777229
vt 0.698977 0.641428
vt 0.006315 0.834345
vt 0.245566 0.657533
vn 0.3827 0.0000 -0.9239
vn 0.9239 0.0000 -0.3827
vn 0.9239 0.0000 0.3827
vn 0.3827 0.0000 0.9239
vn -0.3827 0.0000 0.9239
vn -0.9239 0.0000 0.3827
vn -0.9239 0.0000 -0.3827
vn -0.3827 0.0000 -0.9239
vn 0.0000 -1.0000 -0.0000
vn 0.0000 1.0000 0.0000
vn -0.8486 -0.5164 -0.1148
vn 0.5000 -0.8660 0.0000
vn -0.0000 0.0000 1.0000
vn 0.5000 0.8660 0.0000
vn 0.0000 -0.0000 -1.0000
vn -0.8952 0.4290 -0.1211
vn -0.3338 0.0000 0.9427
vn -0.2348 0.0000 -0.9720
vn -0.8977 0.4234 0.1214
vn -0.8522 -0.5104 0.1153
usemtl Material
s off
f 1/1/1 19/2/1 18/3/1 3/4/1
f 3/4/2 18/3/2 20/5/2 5/6/2
f 5/6/3 20/5/3 21/7/3 7/8/3
f 7/8/4 21/7/4 22/9/4 9/10/4
f 9/10/5 22/9/5 23/11/5 11/12/5
f 11/12/6 23/11/6 24/13/6 13/14/6
f 14/15/6 12/16/6 44/17/6 27/18/6
f 13/14/7 24/13/7 25/19/7 15/20/7
f 15/20/8 25/19/8 19/2/8 1/1/8
f 17/21/9 5/22/9 7/23/9 9/24/9
f 2/25/8 16/26/8 46/27/8 40/28/8
f 4/29/1 2/25/1 40/28/1 39/30/1
f 8/31/3 6/32/3 41/33/3 42/34/3
f 13/35/9 17/21/9 9/24/9 11/36/9
f 15/37/9 1/38/9 17/21/9 13/35/9
f 1/38/9 3/39/9 5/22/9 17/21/9
f 2/40/10 4/41/10 18/3/10 19/2/10
f 4/41/10 6/42/10 20/5/10 18/3/10
f 6/42/10 8/43/10 21/7/10 20/5/10
f 8/43/10 10/44/10 22/9/10 21/7/10
f 10/44/10 12/45/10 23/11/10 22/9/10
f 12/45/10 14/46/10 24/13/10 23/11/10
f 14/46/10 16/47/10 25/19/10 24/13/10
f 16/47/10 2/40/10 19/2/10 25/19/10
f 33/48/7 45/49/7 49/50/7 55/51/7
f 69/52/11 68/53/11 64/54/11 37/55/11
f 43/56/4 56/57/4 57/58/4 50/59/4
f 45/49/6 32/60/6 54/61/6 49/50/6
f 10/62/4 8/31/4 42/34/4 28/63/4
f 6/64/2 4/29/2 39/30/2 41/65/2
f 16/26/7 14/15/7 27/18/7 46/27/7
f 12/16/5 10/62/5 28/63/5 44/17/5
f 63/66/12 35/67/12 37/55/12 64/54/12
f 52/68/10 48/69/10 67/70/10 70/71/10
f 37/55/13 35/67/13 62/72/13
f 65/73/14 62/72/14 35/67/14 63/66/14
f 34/74/15 36/75/15 38/76/15
f 29/77/10 59/78/10 39/30/10 40/28/10
f 59/78/10 58/79/10 41/65/10 39/30/10
f 58/80/10 56/81/10 42/34/10 41/33/10
f 56/81/10 43/82/10 28/63/10 42/34/10
f 43/82/10 32/83/10 44/17/10 28/63/10
f 32/83/10 45/84/10 27/18/10 44/17/10
f 45/84/10 33/85/10 46/27/10 27/18/10
f 33/85/10 29/77/10 40/28/10 46/27/10
f 47/86/10 49/87/10 54/88/10 50/89/10
f 51/90/10 55/91/10 49/87/10 47/86/10
f 60/92/10 47/86/10 50/89/10 57/93/10
f 61/94/10 51/90/10 47/86/10 60/92/10
f 32/60/5 43/56/5 50/59/5 54/61/5
f 67/95/16 66/96/16 62/72/16 65/73/16
f 59/97/1 29/98/1 51/99/1 61/100/1
f 29/98/8 33/48/8 55/51/8 51/99/8
f 31/101/3 53/102/3 57/58/3 56/57/3
f 30/103/2 26/104/2 58/105/2 59/97/2
f 26/106/3 31/101/3 56/57/3 58/107/3
f 48/108/2 52/109/2 61/100/2 60/110/2
f 53/102/3 48/111/3 60/112/3 57/58/3
f 52/109/2 30/103/2 59/97/2 61/100/2
f 53/113/13 31/114/13 69/52/13 66/96/13
f 30/115/15 52/68/15 70/71/15 71/116/15
f 66/96/17 69/52/17 37/55/17 62/72/17
f 71/116/18 70/71/18 38/76/18 36/75/18
f 70/71/19 67/70/19 65/117/19 38/76/19
f 68/118/20 71/116/20 36/75/20 64/119/20
f 38/76/14 65/117/14 63/120/14 34/74/14
f 26/121/9 30/115/9 71/116/9 68/118/9
f 34/74/12 63/120/12 64/119/12 36/75/12
f 48/122/10 53/113/10 66/96/10 67/95/10
f 31/114/9 26/123/9 68/53/9 69/52/9
