# Blender v2.90.0 OBJ File: 'GDW_2_Y3 - Flag Indicator.blend'
# www.blender.org
mtllib flag_indicator_default.mtl
o Flag_Indicator_Sphere
v 0.000000 0.500000 -0.866025
v 0.750000 1.500000 -0.433013
v 0.750000 0.500000 -0.433013
v 0.750000 1.500000 0.433013
v 0.750000 0.500000 0.433013
v -0.000000 1.500000 0.866026
v -0.000000 0.500000 0.866026
v 0.000000 0.000000 0.000000
v -0.000000 2.000000 0.000000
v -0.750000 1.500000 0.433013
v -0.750000 0.500000 0.433013
v -0.750000 1.500000 -0.433013
v -0.750000 0.500000 -0.433013
v 0.000000 1.500000 -0.866026
v -0.375000 1.500000 -0.649519
v -0.375000 0.500000 -0.649519
v -0.750000 0.500000 -0.000000
v -0.750000 1.500000 -0.000000
v -0.375000 0.500000 0.649519
v -0.375000 1.500000 0.649519
v 0.216593 1.000000 -0.125050
v 0.216593 1.000000 0.125050
v -0.000000 1.000000 0.250100
v -0.216593 1.000000 0.125050
v -0.216593 1.000000 -0.125050
v 0.000000 1.000000 -0.250100
v -0.108297 1.000000 -0.187575
v -0.216593 1.000000 0.000000
v -0.108297 1.000000 0.187575
v 0.375000 0.500000 0.649519
v 0.375000 1.500000 0.649519
v 0.108297 1.000000 0.187575
v 0.750000 0.500000 0.000000
v 0.750000 1.500000 0.000000
v 0.216593 1.000000 0.000000
v 0.375000 0.500000 -0.649519
v 0.375000 1.500000 -0.649519
v 0.108297 1.000000 -0.187575
vt 0.583333 0.000000
vt 0.666667 0.333333
vt 0.583333 0.333333
vt 0.500000 0.333333
vt 0.583333 0.500000
vt 0.583333 0.666667
vt 0.500000 0.666667
vt 0.500000 0.500000
vt 0.666667 0.666667
vt 0.583333 1.000000
vt 0.416667 0.000000
vt 0.416667 0.333333
vt 0.333333 0.333333
vt 0.416667 0.500000
vt 0.416667 0.666667
vt 0.333333 0.666667
vt 0.333333 0.500000
vt 0.416667 1.000000
vt 0.250000 0.000000
vt 0.250000 0.333333
vt 0.166667 0.333333
vt 0.250000 0.500000
vt 0.250000 0.666667
vt 0.166667 0.666667
vt 0.166667 0.500000
vt 0.250000 1.000000
vt 0.083333 0.000000
vt 0.083333 0.333333
vt 0.000000 0.333333
vt 0.083333 0.500000
vt 0.083333 0.666667
vt 0.000000 0.666667
vt 0.000000 0.500000
vt 0.083333 1.000000
vt 0.916667 0.000000
vt 1.000000 0.333333
vt 0.916667 0.333333
vt 0.833333 0.333333
vt 0.916667 0.500000
vt 0.916667 0.666667
vt 0.833333 0.666667
vt 0.833333 0.500000
vt 1.000000 0.666667
vt 0.916667 1.000000
vt 0.750000 0.000000
vt 0.750000 0.333333
vt 0.750000 0.500000
vt 0.750000 0.666667
vt 0.666667 0.500000
vt 0.750000 1.000000
vt 1.000000 0.500000
vn 0.2774 -0.8321 -0.4804
vn 0.3419 -0.7296 -0.5923
vn 0.2774 0.8321 -0.4804
vn 0.5547 -0.8321 0.0000
vn 0.6839 -0.7296 0.0000
vn 0.5547 0.8321 0.0000
vn 0.2774 -0.8321 0.4804
vn 0.3419 -0.7296 0.5923
vn 0.2773 0.8321 0.4804
vn -0.2774 -0.8321 0.4804
vn -0.3419 -0.7296 0.5923
vn -0.2774 0.8321 0.4804
vn -0.5547 -0.8321 -0.0000
vn -0.6839 -0.7296 0.0000
vn -0.5547 0.8321 -0.0000
vn -0.2773 -0.8321 -0.4804
vn -0.3419 -0.7296 -0.5923
vn -0.2773 0.8321 -0.4804
vn -0.3419 0.7296 0.5923
vn -0.6839 0.7296 0.0000
vn -0.3419 0.7296 -0.5923
vn 0.3419 0.7296 0.5923
vn 0.6839 0.7296 0.0000
vn 0.3419 0.7296 -0.5923
usemtl Material
s off
f 8/1/1 1/2/1 36/3/1 3/4/1
f 38/5/2 37/6/2 2/7/2 21/8/2
f 14/9/3 9/10/3 2/7/3 37/6/3
f 8/11/4 3/4/4 33/12/4 5/13/4
f 35/14/5 34/15/5 4/16/5 22/17/5
f 2/7/6 9/18/6 4/16/6 34/15/6
f 8/19/7 5/13/7 30/20/7 7/21/7
f 32/22/8 31/23/8 6/24/8 23/25/8
f 4/16/9 9/26/9 6/24/9 31/23/9
f 8/27/10 7/21/10 19/28/10 11/29/10
f 29/30/11 20/31/11 10/32/11 24/33/11
f 6/24/12 9/34/12 10/32/12 20/31/12
f 8/35/13 11/36/13 17/37/13 13/38/13
f 28/39/14 18/40/14 12/41/14 25/42/14
f 10/43/15 9/44/15 12/41/15 18/40/15
f 8/45/16 13/38/16 16/46/16 1/2/16
f 27/47/17 15/48/17 14/9/17 26/49/17
f 12/41/18 9/50/18 14/9/18 15/48/18
f 25/42/17 12/41/17 15/48/17 27/47/17
f 24/51/14 10/43/14 18/40/14 28/39/14
f 23/25/11 6/24/11 20/31/11 29/30/11
f 7/21/19 23/25/19 29/30/19 19/28/19
f 11/36/20 24/51/20 28/39/20 17/37/20
f 13/38/21 25/42/21 27/47/21 16/46/21
f 16/46/21 27/47/21 26/49/21 1/2/21
f 17/37/20 28/39/20 25/42/20 13/38/20
f 19/28/19 29/30/19 24/33/19 11/29/19
f 30/20/22 32/22/22 23/25/22 7/21/22
f 33/12/23 35/14/23 22/17/23 5/13/23
f 36/3/24 38/5/24 21/8/24 3/4/24
f 5/13/22 22/17/22 32/22/22 30/20/22
f 22/17/8 4/16/8 31/23/8 32/22/8
f 3/4/23 21/8/23 35/14/23 33/12/23
f 21/8/5 2/7/5 34/15/5 35/14/5
f 1/2/24 26/49/24 38/5/24 36/3/24
f 26/49/2 14/9/2 37/6/2 38/5/2
